<svg width="28" height="28" viewBox="0 0 28 28" fill="none" xmlns="http://www.w3.org/2000/svg">
<path d="M14.6666 9.99999C14.4222 9.99999 14.2333 9.88888 14.1 9.66666C13.9666 9.44443 13.9666 9.22221 14.1 8.99999L18 2.23332C18.1777 1.94443 18.4 1.77221 18.6666 1.71666C18.9333 1.6611 19.2222 1.7111 19.5333 1.86666C21.0666 2.55555 22.4222 3.51666 23.6 4.74999C24.7777 5.98332 25.6888 7.37777 26.3333 8.93332C26.4444 9.22221 26.4277 9.47221 26.2833 9.68332C26.1388 9.89443 25.9111 9.99999 25.6 9.99999H14.6666ZM9.89996 11.6333L5.89996 4.69999C5.72218 4.4111 5.67774 4.12221 5.76663 3.83332C5.85551 3.54443 6.03329 3.3111 6.29996 3.13332C7.36663 2.37777 8.54996 1.77777 9.84996 1.33332C11.15 0.888879 12.5333 0.666656 14 0.666656C14.3333 0.666656 14.7 0.683323 15.1 0.716656C15.5 0.74999 15.8333 0.788879 16.1 0.833323C16.4111 0.877768 16.6166 1.0111 16.7166 1.23332C16.8166 1.45555 16.7888 1.69999 16.6333 1.96666L11.0666 11.6333C10.9333 11.8555 10.7388 11.9667 10.4833 11.9667C10.2277 11.9667 10.0333 11.8555 9.89996 11.6333ZM1.79996 16.6667C1.55551 16.6667 1.33329 16.5833 1.13329 16.4167C0.933293 16.25 0.81107 16.0444 0.766626 15.8C0.722182 15.5555 0.694404 15.2889 0.683293 15C0.672182 14.7111 0.666626 14.3778 0.666626 14C0.666626 12.6 0.894404 11.2055 1.34996 9.81666C1.80551 8.42777 2.51107 7.1111 3.46663 5.86666C3.71107 5.55555 3.9944 5.39999 4.31663 5.39999C4.63885 5.39999 4.88885 5.56666 5.06663 5.89999L10.6666 15.6667C10.8 15.8889 10.7944 16.1111 10.65 16.3333C10.5055 16.5555 10.3111 16.6667 10.0666 16.6667H1.79996ZM8.46663 26.1333C6.99996 25.4222 5.65551 24.4555 4.43329 23.2333C3.21107 22.0111 2.28885 20.6222 1.66663 19.0667C1.55551 18.7778 1.57774 18.5278 1.73329 18.3167C1.88885 18.1055 2.12218 18 2.43329 18H13.3C13.5444 18 13.7333 18.1111 13.8666 18.3333C14 18.5555 14 18.7778 13.8666 19L10.0333 25.7C9.85551 25.9889 9.63329 26.1778 9.36663 26.2667C9.09996 26.3555 8.79996 26.3111 8.46663 26.1333ZM14 27.3333C13.6888 27.3333 13.3388 27.3167 12.95 27.2833C12.5611 27.25 12.2222 27.2111 11.9333 27.1667C11.6222 27.1222 11.4111 26.9889 11.3 26.7667C11.1888 26.5444 11.2111 26.3 11.3666 26.0333L16.8666 16.4333C17 16.2111 17.2222 16.1 17.5333 16.1C17.8444 16.1 18.0666 16.2111 18.2 16.4333L22.1333 23.2667C22.2888 23.5111 22.3388 23.7778 22.2833 24.0667C22.2277 24.3555 22.0444 24.6222 21.7333 24.8667C20.7111 25.6222 19.5166 26.2222 18.15 26.6667C16.7833 27.1111 15.4 27.3333 14 27.3333ZM23.0333 22.1667L17.3666 12.3333C17.2333 12.1111 17.2388 11.8889 17.3833 11.6667C17.5277 11.4444 17.7222 11.3333 17.9666 11.3333H26.2C26.4444 11.3333 26.6666 11.4167 26.8666 11.5833C27.0666 11.75 27.1888 11.9555 27.2333 12.2C27.2777 12.4444 27.3055 12.7111 27.3166 13C27.3277 13.2889 27.3333 13.6222 27.3333 14C27.3333 15.4 27.1055 16.8055 26.65 18.2167C26.1944 19.6278 25.4888 20.9444 24.5333 22.1667C24.3555 22.4111 24.1 22.5389 23.7666 22.55C23.4333 22.5611 23.1888 22.4333 23.0333 22.1667Z" fill="white"/>
</svg>
