<svg width="20" height="20" viewBox="0 0 20 20" fill="none" xmlns="http://www.w3.org/2000/svg">
<mask id="mask0_4_1704" style="mask-type:alpha" maskUnits="userSpaceOnUse" x="0" y="0" width="20" height="20">
<rect width="20" height="20" fill="#D9D9D9"/>
</mask>
<g mask="url(#mask0_4_1704)">
<path d="M0.833374 14.3333C0.833374 13.8611 0.954902 13.4271 1.19796 13.0313C1.44101 12.6354 1.76393 12.3333 2.16671 12.125C3.02782 11.6945 3.90282 11.3715 4.79171 11.1563C5.6806 10.941 6.58337 10.8333 7.50004 10.8333C8.41671 10.8333 9.31949 10.941 10.2084 11.1563C11.0973 11.3715 11.9723 11.6945 12.8334 12.125C13.2362 12.3333 13.5591 12.6354 13.8021 13.0313C14.0452 13.4271 14.1667 13.8611 14.1667 14.3333V15C14.1667 15.4583 14.0035 15.8507 13.6771 16.1771C13.3507 16.5035 12.9584 16.6667 12.5 16.6667H2.50004C2.04171 16.6667 1.64935 16.5035 1.32296 16.1771C0.996569 15.8507 0.833374 15.4583 0.833374 15V14.3333ZM15.375 16.6667C15.5278 16.4167 15.6424 16.1493 15.7188 15.8646C15.7952 15.5799 15.8334 15.2917 15.8334 15V14.1667C15.8334 13.5556 15.6632 12.9688 15.323 12.4063C14.9827 11.8438 14.5 11.3611 13.875 10.9583C14.5834 11.0417 15.25 11.184 15.875 11.3854C16.5 11.5868 17.0834 11.8333 17.625 12.125C18.125 12.4028 18.507 12.7118 18.7709 13.0521C19.0348 13.3924 19.1667 13.7639 19.1667 14.1667V15C19.1667 15.4583 19.0035 15.8507 18.6771 16.1771C18.3507 16.5035 17.9584 16.6667 17.5 16.6667H15.375ZM7.50004 10C6.58337 10 5.79865 9.67362 5.14587 9.02084C4.4931 8.36807 4.16671 7.58334 4.16671 6.66668C4.16671 5.75001 4.4931 4.96529 5.14587 4.31251C5.79865 3.65973 6.58337 3.33334 7.50004 3.33334C8.41671 3.33334 9.20143 3.65973 9.85421 4.31251C10.507 4.96529 10.8334 5.75001 10.8334 6.66668C10.8334 7.58334 10.507 8.36807 9.85421 9.02084C9.20143 9.67362 8.41671 10 7.50004 10ZM15.8334 6.66668C15.8334 7.58334 15.507 8.36807 14.8542 9.02084C14.2014 9.67362 13.4167 10 12.5 10C12.3473 10 12.1528 9.98265 11.9167 9.94793C11.6806 9.9132 11.4862 9.87501 11.3334 9.83334C11.7084 9.3889 11.9966 8.89584 12.198 8.35418C12.3993 7.81251 12.5 7.25001 12.5 6.66668C12.5 6.08334 12.3993 5.52084 12.198 4.97918C11.9966 4.43751 11.7084 3.94445 11.3334 3.50001C11.5278 3.43057 11.7223 3.38543 11.9167 3.36459C12.1112 3.34376 12.3056 3.33334 12.5 3.33334C13.4167 3.33334 14.2014 3.65973 14.8542 4.31251C15.507 4.96529 15.8334 5.75001 15.8334 6.66668Z" fill="#96A397"/>
</g>
</svg>
