<svg width="20" height="20" viewBox="0 0 20 20" fill="none" xmlns="http://www.w3.org/2000/svg">
<path d="M12.1667 12.2583V12.1667H12.2584H12.7089L16.0956 15.5694L16.0965 15.5702C16.2429 15.7166 16.2429 15.9584 16.0965 16.1048C15.9501 16.2512 15.7083 16.2512 15.5619 16.1048L12.1667 12.7096V12.2583ZM11.6454 11.1163L11.4012 11.4012L11.1163 11.6454C10.0563 12.554 8.61265 13.0227 7.07492 12.7653C4.97602 12.4104 3.29462 10.6527 3.03805 8.53973L3.03796 8.539C2.64431 5.33678 5.33681 2.64428 8.53903 3.03793L8.53976 3.03802C10.6527 3.29459 12.4104 4.97599 12.7653 7.07489C13.0227 8.61262 12.554 10.0562 11.6454 11.1163ZM3.6667 7.91667C3.6667 10.2678 5.56556 12.1667 7.9167 12.1667C10.2678 12.1667 12.1667 10.2678 12.1667 7.91667C12.1667 5.56553 10.2678 3.66667 7.9167 3.66667C5.56556 3.66667 3.6667 5.56553 3.6667 7.91667Z" fill="#323232" stroke="#96A397"/>
</svg>
